PathFileType	4	(X/Y/Z)	C:/Users/beibeiliu/ov580/test_trc/User2\sequence.35_training_dense_right.trc
DataRate	CameraRate	NumFrames	NumMarkers	Units	OrigDataRate	OrigDataStartFrame	OrigNumFrames
120	120	24	19	mm	120	37	289
Frame#	Time	ThumbCMC			ThumbMCP			ThumbIP			ThumbTip			IndexMCP			IndexPIP			IndexTip			MiddleMCP			MiddlePIP			MiddleTip			RingMCP			RingPIP			RingTip			PinkyMCP			PinkyPIP			PinkyTip			BackHand1			BackHand2			BackHand3	
		X0	Y0	Z0	X1	Y1	Z1	X2	Y2	Z2	X3	Y3	Z3	X4	Y4	Z4	X5	Y5	Z5	X6	Y6	Z6	X7	Y7	Z7	X8	Y8	Z8	X9	Y9	Z9	X10	Y10	Z10	X11	Y11	Z11	X12	Y12	Z12	X13	Y13	Z13	X14	Y14	Z14	X15	Y15	Z15	X16	Y16	Z16	X17	Y17	Z17	X18	Y18	Z18	
36	0.3	76.7922	-25.544	82.108	53.2117	-14.8774	59.0241	26.6885	-29.983	32.3158	15.1883	-56.0222	32.261	61.0142	-70.8885	12.128	34.509	-74.4094	-6.1873	3.80918	-69.5495	6.0602	54.6632	-88.5252	9.83418	21.3463	-92.7273	-0.695081	-9.5833	-73.5935	19.8066	46.9779	-106.675	27.1006	14.3412	-104.352	15.0115	-9.01803	-84.7144	32.4277	41.7761	-117.364	50.3523	8.85309	-114.096	33.405	-9.96887	-97.3399	37.0767	83.6041	-92.9762	75.3709	99.26	-86.2534	100.066	98.9424	-59.1514	77.808	
37	0.308333	76.4415	-25.3989	86.4145	52.8124	-13.8675	57.5408	26.3196	-31.2208	31.2962	15.2602	-58.6839	31.973	59.6719	-68.5875	13.5469	33.5551	-76.4699	-3.53278	0.802468	-64.2896	4.18471	52.9499	-90.4558	11.3379	17.8059	-93.5145	1.02013	-10.8863	-75.0999	23.1314	45.7888	-106.791	26.8574	12.0829	-102.839	15.2671	-9.52384	-83.1785	30.3904	39.2318	-117.598	48.2857	8.73567	-112.702	33.2563	-12.9467	-92.6442	38.6205	84.6597	-94.5426	76.0047	98.6255	-90.1366	100.854	96.5058	-60.2728	72.7144	
38	0.316667	77.0505	-24.091	86.0644	52.9807	-15.149	57.2892	27.4933	-32.4081	31.9992	14.5277	-56.8923	31.4848	57.0047	-69.0196	10.2266	29.8453	-72.8928	-5.36488	-0.792779	-63.2968	8.27011	51.9088	-91.2524	13.3197	18.073	-89.4556	-0.735862	-11.761	-70.5218	21.2083	42.3742	-103.86	23.1739	13.8491	-104.23	14.7792	-10.4053	-81.3949	30.687	40.6782	-114.839	48.5283	12.1648	-113.985	34.1723	-10.6611	-93.8289	38.4856	82.6244	-92.9217	75.4362	98.4617	-86.385	99.1841	97.8895	-60.3644	72.9797	
39	0.325	77.2109	-20.5377	83.8075	52.5218	-18.8677	53.9234	29.1027	-36.1421	34.1113	15.3815	-58.0974	32.3808	59.7108	-64.2486	12.8474	31.8397	-71.2104	-6.53134	-0.576394	-61.2142	6.62676	51.4033	-87.5228	9.10051	14.2161	-88.9175	0.183531	-11.5826	-71.2681	24.6033	40.9338	-105.934	23.2442	12.0427	-100.695	14.2534	-10.8239	-79.4084	33.3604	41.0107	-111.449	45.592	9.78671	-110.481	32.2858	-13.3339	-90.8015	41.6045	82.3005	-95.6547	74.5462	98.2037	-88.1152	102.999	98.3078	-58.4605	71.872	
40	0.333333	76.7777	-22.3051	81.2039	52.476	-17.669	55.9074	28.1236	-33.5379	33.4033	17.9305	-60.5798	32.0493	59.9598	-65.0117	11.2939	30.7136	-73.6041	-3.47477	-1.9631	-61.3582	11.9993	51.8209	-90.5113	12.4686	18.3742	-88.6629	-0.124981	-10.7741	-70.8948	24.043	43.541	-105.933	27.2805	12.9087	-101.039	14.7365	-10.8261	-83.1394	33.3551	39.5924	-115.544	46.6943	8.51531	-110.735	33.4345	-13.7566	-92.4508	43.2857	82.7723	-92.9208	73.0555	99.8415	-87.6052	101.174	96.248	-60.1533	74.599	
41	0.341667	76.044	-23.4527	83.0119	52.4953	-14.4843	56.3704	29.8845	-35.0616	33.3024	17.7888	-62.4434	30.268	59.7966	-63.685	9.97187	29.4574	-71.7859	-3.94305	0.740332	-60.3345	9.72174	50.8796	-88.3711	8.92469	15.7606	-90.3667	1.78854	-10.4212	-71.9586	27.7341	42.2208	-105.82	23.8705	15.1691	-101.204	13.7088	-10.2822	-81.2898	36.9398	40.9622	-115.095	48.278	8.72363	-106.295	32.8365	-12.397	-92.7861	44.2806	85.1085	-93.5618	74.8663	96.6631	-86.6369	99.6854	97.4992	-55.7888	74.2316	
42	0.35	76.6515	-25.2127	82.1959	54.5778	-15.8173	56.9036	30.5379	-32.8359	30.4655	18.0358	-60.8579	26.3949	56.3671	-68.5488	10.3244	29.9964	-73.1156	-1.7725	0.928074	-61.3519	13.2092	49.8649	-91.5177	10.6278	17.5394	-91.9899	1.72902	-10.6149	-72.2008	25.5297	43.6714	-102.536	24.6924	12.5049	-101.064	15.1643	-8.35739	-80.5889	32.3063	40.1511	-116.241	48.1517	10.3988	-111.658	33.8294	-13.0934	-90.7795	45.0055	84.8596	-93.4831	75.0211	97.0709	-88.1672	100.079	96.111	-57.629	71.5539	
43	0.358333	78.8486	-22.5313	81.7385	58.31	-16.4609	56.5849	34.9913	-27.9085	31.3888	20.1379	-50.8199	25.1508	58.6147	-68.6951	14.6065	25.2478	-71.3233	-3.04846	-0.0303593	-60.4209	12.8845	51.9409	-89.5105	15.299	16.1627	-88.2175	1.12533	-10.0601	-71.7778	23.4898	44.7862	-105.275	27.0981	10.8843	-100.754	16.8079	-10.0102	-84.1902	36.5637	39.2851	-117.698	47.9989	10.3906	-109.527	34.9915	-11.8716	-91.2215	46.8003	84.5185	-93.3975	76.2552	98.4787	-87.8987	100.763	97.0281	-60.8006	76.8384	
44	0.366667	78.3223	-27.0278	81.3096	62.3759	-14.6383	57.7903	39.4302	-21.4743	30.8676	21.3469	-41.4986	19.1452	56.8578	-69.8024	10.2954	28.8065	-72.1132	-2.61063	-1.28495	-63.4325	16.649	49.9941	-90.1826	13.7541	14.085	-91.5873	4.93883	-10.9269	-71.3257	27.0082	40.7396	-107.389	26.9074	9.75755	-101.972	18.3519	-10.1287	-83.7148	37.9733	39.3761	-113.744	50.0559	7.6802	-110.873	38.0405	-9.8061	-88.959	46.8187	83.954	-96.3527	73.7453	97.7956	-86.9913	106.057	97.9438	-58.9094	77.0984	
45	0.375	79.4625	-26.3613	81.8168	63.9602	-13.903	54.6455	43.3678	-14.8706	25.5697	23.3603	-31.0965	9.69152	58.7317	-71.4195	15.5885	28.5134	-72.7866	-2.11156	-2.26365	-61.5417	15.0766	50.7032	-90.6236	14.7145	16.6749	-90.6236	3.40667	-11.0716	-72.5117	28.8231	43.4553	-105.887	31.0037	9.72849	-103.271	20.2021	-11.6345	-82.666	37.7359	37.2422	-118.532	51.0395	11.0717	-111.792	39.1942	-15.0598	-93.4924	49.1845	83.2133	-93.2513	76.7713	98.9195	-89.5466	107.892	97.6193	-58.0816	73.7331	
46	0.383333	80.3767	-23.259	81.2723	65.5839	-14.2273	56.5615	44.7924	-13.0902	23.7701	27.9698	-21.9143	10.7792	57.7232	-68.6401	13.514	28.0351	-76.2198	0.0242606	-3.66482	-64.3802	17.2145	50.0476	-92.236	17.1297	14.0499	-90.9328	5.50777	-10.7894	-73.312	30.2014	43.3759	-106.568	31.5854	9.77076	-103.864	21.1436	-11.673	-82.6335	39.2341	36.236	-120.734	52.184	4.01072	-112.941	42.021	-12.2184	-91.2115	49.1587	80.0506	-98.7448	76.6516	97.3586	-90.4732	104.348	96.8058	-61.8513	76.3617	
47	0.391667	80.5268	-26.2174	86.3722	66.2183	-11.5825	56.4339	47.8756	-9.43068	26.8838	29.9472	-21.2195	9.73074	58.1911	-67.4563	14.7573	26.7624	-77.8894	1.22778	-1.86571	-63.7645	13.031	48.1492	-95.0277	17.6557	10.8933	-91.2984	7.75519	-12.0788	-70.17	31.5869	42.5357	-107.94	33.1355	7.03797	-106.058	24.3323	-11.6202	-84.0915	40.4206	36.6115	-118.445	53.4159	8.2255	-110.434	41.3641	-12.7346	-91.2053	49.2853	83.4925	-98.2704	79.6375	99.5888	-86.6002	107.422	98.1525	-59.5234	79.8294	
48	0.4	80.5939	-23.5105	85.5075	66.9674	-9.59128	58.7777	47.6909	-9.90084	26.613	30.9397	-15.57	11.1462	54.8202	-71.9357	12.7425	29.2308	-73.692	-1.13869	-1.17434	-66.7952	15.2393	47.6509	-94.5172	17.9643	13.1877	-90.711	7.33002	-12.0255	-70.9425	31.6881	41.9488	-106.051	30.78	11.116	-105.694	23.0829	-13.1298	-82.2316	45.8332	37.4505	-117.542	55.2182	5.57712	-114.184	43.4795	-12.503	-91.0418	50.7922	83.0254	-96.6986	81.6178	98.5472	-89.3258	106.061	97.8274	-59.351	78.9336	
49	0.408333	79.5168	-25.5526	84.9024	65.6769	-12.2557	55.4191	47.8669	-7.06826	29.5341	29.838	-16.8164	10.0016	55.9838	-69.6199	16.4639	23.7035	-74.3609	2.26147	-3.69782	-62.6552	19.4985	50.9291	-88.7238	18.6846	10.0275	-91.9973	9.87951	-11.3916	-72.4278	31.868	39.7985	-108.31	31.7995	11.0417	-102.424	21.9765	-13.0337	-81.009	44.5714	38.9436	-114.173	54.2672	5.99293	-112.51	43.8796	-13.0103	-91.6253	50.2196	82.6492	-96.4057	78.6758	97.0424	-85.5256	105.214	98.5692	-59.3237	78.9736	
50	0.416667	79.2919	-21.5395	82.2464	64.8006	-7.59554	57.2949	46.7937	-6.52904	30.4276	28.6395	-16.348	8.63846	56.2188	-67.6518	12.6211	25.153	-72.3302	0.00626839	-2.44162	-62.5449	17.2758	48.153	-89.5719	14.2914	14.7548	-88.7683	6.67384	-11.5341	-74.8399	34.543	40.7279	-108.015	31.5342	10.9804	-103.856	23.0474	-12.9702	-82.7364	45.6151	37.975	-114.355	52.48	8.50623	-108.246	40.2162	-14.5334	-93.5615	53.7334	82.9543	-93.3826	74.3346	99.0932	-85.458	102.964	97.3233	-58.6961	80.0038	
51	0.425	80.4277	-19.1283	85.7548	65.2191	-10.4258	56.6372	46.0426	-8.13904	31.6707	28.3749	-17.8269	10.8542	57.8793	-67.5781	15.8023	28.5305	-72.9423	1.96335	-2.08769	-59.5802	16.7294	51.7096	-88.4972	17.8681	16.0937	-88.9403	6.02082	-11.0349	-68.9028	31.7397	41.9695	-107.986	32.4694	8.86876	-99.6853	21.9407	-12.3784	-81.9429	45.0813	38.1091	-114.161	50.2967	9.05164	-112.372	42.2209	-15.2636	-89.4181	52.4987	83.7016	-93.8003	74.4175	98.8178	-88.2034	105.748	99.1278	-56.7786	77.8679	
52	0.433333	81.1381	-20.1013	84.486	64.6599	-7.20434	58.0645	44.8436	-9.50343	31.116	27.3921	-16.7106	12.5315	54.9269	-68.302	13.5447	25.171	-69.8078	0.0484618	-3.43136	-61.165	22.1148	50.3868	-90.0759	15.2813	16.5563	-86.5843	5.23004	-10.191	-72.4693	33.1833	41.4231	-104.572	28.5647	10.9969	-100.918	22.3434	-11.3952	-81.1269	44.7582	40.2118	-113.166	50.8874	9.64851	-108.696	39.7026	-12.6488	-90.0443	50.4413	84.7646	-95.4225	76.3621	100.112	-82.9502	106.778	97.3779	-58.3265	78.7979	
53	0.441667	81.0176	-20.309	86.135	65.4545	-5.23245	59.2481	45.131	-6.22737	33.5006	25.9624	-22.1376	12.3253	57.8236	-65.3629	15.6651	29.6534	-71.6782	1.93922	0.280392	-63.0493	19.4895	52.6321	-85.3956	15.3907	13.2006	-87.1503	6.05107	-10.2806	-73.3693	32.0987	41.3937	-106.113	28.3545	11.9442	-102.382	21.9935	-9.36217	-77.4438	42.6095	40.8276	-114.888	51.9326	10.1942	-112.062	41.128	-10.6941	-90.036	48.4573	86.6544	-93.9822	78.1604	100.844	-84.1033	105.271	99.8256	-55.3963	77.0361	
54	0.45	80.9343	-22.9186	87.5146	66.8787	-8.0217	62.4199	45.9679	-9.45262	31.5058	27.9436	-22.1149	17.753	56.0618	-67.417	13.3112	25.466	-69.5599	1.02277	-0.233758	-61.2429	17.9545	51.5846	-86.4183	14.0973	13.6322	-85.6881	5.88326	-8.85422	-70.0472	28.3284	42.2487	-102.476	27.1944	12.3103	-102.969	21.9922	-8.90944	-81.233	40.285	39.6517	-113.802	48.1427	9.28627	-107.568	39.6253	-13.7982	-87.5599	53.0562	85.0609	-91.7585	74.5253	100.739	-85.5345	105.97	99.6396	-56.2892	74.6022	
55	0.458333	81.9024	-23.9221	86.7769	68.7438	-10.0704	59.2082	47.9425	-8.59606	33.514	29.1206	-29.5009	20.044	57.5068	-64.5429	13.5567	28.0405	-70.632	2.46064	0.915953	-61.421	17.3773	52.4557	-86.6637	15.3107	16.7852	-85.9431	5.28897	-9.53243	-69.3605	32.2905	44.6904	-104.818	30.4961	12.2387	-96.461	19.7166	-10.3051	-81.7174	42.333	42.0612	-112.531	50.2741	8.66572	-108.855	39.7413	-9.99787	-86.5597	49.3832	86.3148	-93.9114	74.4923	100.701	-85.0073	106.3	99.8589	-54.0771	75.0884	
56	0.466667	83.2672	-23.2272	86.2959	68.9508	-7.77513	59.2108	48.6312	-11.7393	32.4065	30.261	-30.9542	21.5134	57.2943	-66.1065	14.6632	31.0131	-68.1968	0.710802	-0.468536	-58.6961	17.4932	53.2263	-85.9534	15.8104	18.6595	-87.7849	5.83434	-8.28689	-69.5598	29.5604	45.8473	-100.762	29.3409	12.2551	-101.27	20.8347	-8.87614	-82.8944	41.372	42.4412	-110.479	48.9033	10.1347	-109.624	39.1321	-10.9801	-89.7472	53.0357	85.9389	-93.5316	77.5956	101.853	-85.0384	104.794	99.1805	-57.1501	76.2899	
57	0.475	83.2127	-21.4715	87.3447	68.8987	-7.36877	56.8641	45.6764	-11.4532	28.7642	30.3708	-31.6133	25.3813	58.9265	-62.2694	14.2929	28.8709	-69.2585	0.689071	-0.520844	-58.9566	19.2618	52.0712	-86.9373	16.3237	15.2886	-85.1888	4.70082	-8.64624	-70.6691	30.0389	45.0677	-103.22	30.3857	13.9521	-100.503	19.4794	-8.23734	-77.5832	38.9838	40.6034	-114.332	47.756	12.5111	-106.032	37.1127	-11.7541	-85.4962	51.6868	86.9318	-89.875	75.7031	100.284	-85.9396	102.116	99.0333	-57.2274	76.48	
58	0.483333	82.2652	-22.7124	85.0352	67.4382	-5.44411	60.1932	44.9254	-8.89144	32.549	27.7072	-36.1831	27.4931	57.6505	-63.3527	15.679	26.8471	-65.9641	-0.825253	-0.380752	-57.1255	16.6527	53.2595	-85.4167	16.7877	13.847	-87.2906	5.9904	-9.96346	-66.128	30.0887	45.6649	-99.0459	27.3424	11.9519	-100.402	20.9534	-8.3947	-80.1632	38.1691	41.38	-113.735	48.7688	10.6971	-107.68	37.5027	-12.2611	-88.8468	49.6702	85.039	-92.3188	77.8732	102.063	-85.1313	106.441	99.8532	-56.1302	77.882	
59	0.491667	81.0163	-23.4692	86.3771	65.762	-4.56335	58.5807	41.699	-17.9283	34.8603	25.6198	-38.0599	29.4686	57.6077	-60.1314	13.5413	28.3136	-67.4001	0.786218	-1.60611	-60.4198	19.0772	50.3416	-85.678	13.8952	14.3381	-85.8873	4.75911	-10.073	-70.3127	28.5892	44.2397	-102.733	27.5866	11.7707	-101.245	19.8538	-9.6784	-82.9745	40.1197	42.4131	-114.184	50.2891	11.1348	-110.262	38.238	-8.76198	-89.8553	48.8293	83.6487	-91.8714	72.6601	102.422	-85.0796	105.016	100.467	-57.0781	78.0747	
